# xmcd
#
# Track frame offsets:
#	150
#	24710
#	45700
#	62182
#	79642
#	100205
#	118685
#	138687
#	160917
#	179877
#	198422
#	215532
#
# Disc length: 3147 seconds
#
# Revision: 1
# Processed by: cddbd v1.5.1PL0 Copyright (c) Steve Scherf et al.
# Submitted via: CDex 1.50Beta5
#
DISCID=b40c490c
DTITLE=ちあきなおみ - 夜霧よ今夜も有難う〜ちあきなおみ石原裕次郎を唄う
DYEAR=1900
DGENRE=Pop
TTITLE0=夜霧よ今夜も有難う
TTITLE1=泣かせるぜ
TTITLE2=ひとりぼっちの青春
TTITLE3=粋な別れ
TTITLE4=赤いハンカチ
TTITLE5=口笛が聞こえる港町
TTITLE6=錆びたナイフ
TTITLE7=二人の世界
TTITLE8=狂った果実
TTITLE9=泣きはしないさ
TTITLE10=お前にゃ俺がついている
TTITLE11=こぼれ花
EXTD=
EXTT0=
EXTT1=
EXTT2=
EXTT3=
EXTT4=
EXTT5=
EXTT6=
EXTT7=
EXTT8=
EXTT9=
EXTT10=
EXTT11=
PLAYORDER=
